<svg fill="none" height="20" viewBox="0 0 27 20" width="27" xmlns="http://www.w3.org/2000/svg"><path clip-rule="evenodd" d="m16.247 19.3409c.1747.1168.3802.1791.5904.179.1401-.0009.2787-.0296.4077-.0845.129-.0548.2458-.1347.3437-.2351l9.1987-9.20038-9.1987-9.200399c-.0987-.098675-.2159-.176949-.3448-.230351-.1289-.053403-.2671-.080889-.4066-.080889-.1396 0-.2778.027486-.4067.080889-.1289.053402-.2461.131676-.3447.230351-.0987.098675-.177.215819-.2304.344749-.0534.12892-.0809.2671-.0809.40665s.0275.27773.0809.40666c.0534.12892.1317.24607.2304.34474l6.6351 6.63518h-21.44742c-.281791 0-.552042.11194-.751299.3112-.199258.19926-.311199.46951-.311199.7513 0 .2818.111941.552.311199.7513.199257.1993.469508.3112.751299.3112h21.44842l-6.6361 6.6435c-.1487.1486-.2499.3379-.2909.5441-.041.2061-.02.4198.0604.6139.0805.1942.2167.3602.3915.4769z" fill="#000" fill-rule="evenodd"></path></svg>